<svg version="1.1" xmlns="http://www.w3.org/2000/svg" xmlns:xlink="http://www.w3.org/1999/xlink" x="0px" y="0px" width="100.25px" height="100px" viewBox="0 0 100.25 100" enable-background="new 0 0 100.25 100" xml:space="preserve">
<g id="">
	<g>
		<path fill="#231F20" d="M35.85,28.738h13.8c2.56,0,4.93,0.34,7.11,1.02c2.18,0.681,4.07,1.68,5.67,3
			c1.599,1.32,2.85,2.95,3.75,4.89c0.9,1.94,1.35,4.17,1.35,6.69c0,2-0.28,3.7-0.84,5.1c-0.561,1.4-1.18,2.56-1.86,3.48
			c-0.801,1.041-1.701,1.92-2.7,2.64l7.5,13.2h-15l-6-10.141v10.141H35.85V28.738z M48.33,54.838c1.56,0,3.08-0.16,4.56-0.48
			l5.7,9.601h1.86l-6-10.08c2.16-0.759,3.879-1.93,5.16-3.51c1.28-1.58,1.92-3.63,1.92-6.15c0-1.76-0.34-3.3-1.02-4.62
			c-0.68-1.32-1.61-2.43-2.79-3.33c-1.181-0.9-2.571-1.58-4.17-2.04c-1.6-0.459-3.34-0.69-5.22-0.69h-6.48v30.42h1.56v-9.12H48.33z
			 M43.41,53.398v-18.42h4.92c3.639,0,6.489,0.8,8.55,2.4c2.06,1.6,3.09,3.88,3.09,6.84c0,2.96-1.031,5.23-3.09,6.81
			c-2.061,1.581-4.911,2.371-8.55,2.371H43.41z M48.63,48.418h0.66c1.52,0,2.81-0.339,3.87-1.02c1.059-0.68,1.59-1.82,1.59-3.42
			c0-1.6-0.531-2.74-1.59-3.42c-1.061-0.68-2.351-1.02-3.87-1.02h-0.66V48.418z"/>
	</g>
	<circle fill="none" stroke="#231F20" stroke-width="4" cx="49.75" cy="50.738" r="41.75"/>
</g>
</svg>
